<svg width="20" height="20" viewBox="0 0 0 0" fill="none" xmlns="http://www.w3.org/2000/svg">
    <g clip-path="url(#clip0_266_54)">
        <path
            d="M16.6667 3.33317H14.025L12.5 1.6665H7.50001L5.97501 3.33317H3.33334C2.41667 3.33317 1.66667 4.08317 1.66667 4.99984V14.9998C1.66667 15.9165 2.41667 16.6665 3.33334 16.6665H16.6667C17.5833 16.6665 18.3333 15.9165 18.3333 14.9998V4.99984C18.3333 4.08317 17.5833 3.33317 16.6667 3.33317ZM16.6667 14.9998H3.33334V4.99984H6.70834L8.23334 3.33317H11.7667L13.2917 4.99984H16.6667V14.9998ZM10 5.83317C7.70001 5.83317 5.83334 7.69984 5.83334 9.99984C5.83334 12.2998 7.70001 14.1665 10 14.1665C12.3 14.1665 14.1667 12.2998 14.1667 9.99984C14.1667 7.69984 12.3 5.83317 10 5.83317ZM10 12.4998C8.62501 12.4998 7.50001 11.3748 7.50001 9.99984C7.50001 8.62484 8.62501 7.49984 10 7.49984C11.375 7.49984 12.5 8.62484 12.5 9.99984C12.5 11.3748 11.375 12.4998 10 12.4998Z"
            fill="#E9913B" />
    </g>
    <defs>
        <clipPath id="clip0_266_54">
            <rect width="20" height="20" fill="white" />
        </clipPath>
    </defs>
</svg>